<svg width="30" height="30" viewBox="0 0 30 30" fill="none" xmlns="http://www.w3.org/2000/svg">
<path fill-rule="evenodd" clip-rule="evenodd" d="M14.995 0C11.434 0.00184763 7.9897 1.2631 5.27806 3.55824C2.56642 5.85337 0.764251 9.03273 0.193789 12.5278C-0.376672 16.0229 0.32177 19.6057 2.16424 22.6358C4.00672 25.6658 6.87307 27.9454 10.2508 29.0669C10.9959 29.2052 11.2766 28.7434 11.2766 28.3507C11.2766 27.958 11.2617 26.8194 11.2567 25.5746C7.08377 26.4761 6.20198 23.8137 6.20198 23.8137C5.52139 22.0848 4.53776 21.6304 4.53776 21.6304C3.17657 20.7067 4.63961 20.724 4.63961 20.724C6.14734 20.8302 6.93971 22.2626 6.93971 22.2626C8.27606 24.5423 10.4495 23.8828 11.3039 23.4975C11.4381 22.5319 11.828 21.8749 12.2578 21.5019C8.92435 21.1265 5.42203 19.8472 5.42203 14.1321C5.40137 12.6499 5.95452 11.2166 6.96703 10.1286C6.81303 9.75318 6.29885 8.23673 7.11357 6.17693C7.11357 6.17693 8.37293 5.77683 11.2394 7.70573C13.698 7.0372 16.2921 7.0372 18.7507 7.70573C21.6147 5.77683 22.8715 6.17693 22.8715 6.17693C23.6887 8.23179 23.1746 9.74824 23.0206 10.1286C24.0363 11.2168 24.5906 12.6526 24.568 14.137C24.568 19.8645 21.0583 21.1265 17.7199 21.4945C18.2564 21.9589 18.7358 22.8653 18.7358 24.2582C18.7358 26.2538 18.7184 27.8592 18.7184 28.3507C18.7184 28.7483 18.9892 29.2126 19.7492 29.0669C23.1273 27.9452 25.994 25.6652 27.8364 22.6347C29.6788 19.6042 30.3769 16.0207 29.8058 12.5254C29.2347 9.02997 27.4316 5.85058 24.7191 3.55584C22.0066 1.2611 18.5615 0.000676509 15 0H14.995Z" fill="#191717"/>
<path d="M5.67534 21.4155C5.64304 21.4896 5.52382 21.5118 5.42694 21.46C5.33007 21.4081 5.25804 21.3118 5.29282 21.2352C5.32759 21.1587 5.44434 21.1389 5.54121 21.1908C5.63808 21.2426 5.71259 21.3414 5.67534 21.4155Z" fill="#191717"/>
<path d="M6.28367 22.0898C6.23223 22.1155 6.17338 22.1227 6.1172 22.1101C6.06101 22.0975 6.01098 22.0658 5.97567 22.0206C5.8788 21.9169 5.85892 21.7736 5.93343 21.7094C6.00795 21.6452 6.14209 21.6748 6.23897 21.7786C6.33584 21.8823 6.35819 22.0255 6.28367 22.0898Z" fill="#191717"/>
<path d="M6.87522 22.9468C6.78331 23.011 6.62682 22.9468 6.53988 22.8184C6.51584 22.7954 6.49673 22.7677 6.48367 22.7372C6.47061 22.7066 6.46387 22.6738 6.46387 22.6406C6.46387 22.6074 6.47061 22.5745 6.48367 22.544C6.49673 22.5134 6.51584 22.4858 6.53988 22.4628C6.63179 22.401 6.78828 22.4628 6.87522 22.5887C6.96216 22.7147 6.96464 22.8826 6.87522 22.9468V22.9468Z" fill="#191717"/>
<path d="M7.67741 23.7766C7.59544 23.868 7.42902 23.8433 7.2924 23.7198C7.15579 23.5964 7.12349 23.4284 7.20546 23.3395C7.28743 23.2506 7.45385 23.2753 7.59543 23.3963C7.73702 23.5173 7.76434 23.6877 7.67741 23.7766V23.7766Z" fill="#191717"/>
<path d="M8.80236 24.2607C8.7651 24.3768 8.59619 24.4287 8.42729 24.3793C8.25838 24.3299 8.14661 24.1916 8.1789 24.073C8.21119 23.9545 8.38258 23.9002 8.55397 23.9545C8.72536 24.0088 8.83465 24.1397 8.80236 24.2607Z" fill="#191717"/>
<path d="M10.0296 24.3447C10.0296 24.4657 9.89047 24.5694 9.71162 24.5719C9.53278 24.5744 9.38623 24.4756 9.38623 24.3546C9.38623 24.2336 9.52532 24.1298 9.70416 24.1274C9.88301 24.1249 10.0296 24.2212 10.0296 24.3447Z" fill="#191717"/>
<path d="M11.1721 24.1545C11.1945 24.2755 11.0703 24.4015 10.8915 24.4311C10.7126 24.4608 10.5561 24.3892 10.5338 24.2706C10.5114 24.1521 10.6406 24.0236 10.8145 23.9915C10.9883 23.9594 11.1498 24.0335 11.1721 24.1545Z" fill="#191717"/>
</svg>
