<svg width="30" height="30" viewBox="0 0 30 30" fill="none" xmlns="http://www.w3.org/2000/svg">
<g clip-path="url(#clip0_503_426)">
<path d="M2.04545 26.2557H6.81818V14.6648L0 9.55112V24.2102C0 25.342 0.917045 26.2557 2.04545 26.2557Z" fill="#4285F4"/>
<path d="M23.1819 26.2557H27.9546C29.0864 26.2557 30.0001 25.3386 30.0001 24.2102V9.55112L23.1819 14.6648" fill="#34A853"/>
<path d="M23.1819 5.80126V14.6649L30.0001 9.55126V6.82398C30.0001 4.29444 27.1126 2.85239 25.091 4.36944" fill="#FBBC04"/>
<path d="M6.81812 14.6648V5.80112L14.9999 11.9375L23.1818 5.80112V14.6648L14.9999 20.8011" fill="#EA4335"/>
<path d="M0 6.82398V9.55126L6.81818 14.6649V5.80126L4.90909 4.36944C2.88409 2.85239 0 4.29444 0 6.82398" fill="#C5221F"/>
</g>
<defs>
<clipPath id="clip0_503_426">
<rect width="30" height="30" fill="white"/>
</clipPath>
</defs>
</svg>
